<?xml version="1.0" standalone="no"?>
<!DOCTYPE svg PUBLIC "-//W3C//DTD SVG 20010904//EN"
 "http://www.w3.org/TR/2001/REC-SVG-20010904/DTD/svg10.dtd">
<svg version="1.0" xmlns="http://www.w3.org/2000/svg"
 width="180.000000pt" height="210.000000pt" viewBox="0 0 180.000000 210.000000"
 preserveAspectRatio="xMidYMid meet">
<metadata>
Created by potrace 1.16, written by Peter Selinger 2001-2019
</metadata>
<g transform="translate(0.000000,210.000000) scale(0.100000,-0.100000)"
fill="#000000" stroke="none">
<path d="M722 1588 c-6 -6 -12 -18 -12 -25 0 -7 -5 -22 -12 -32 -10 -16 -5
-25 32 -65 23 -25 49 -55 57 -66 12 -18 25 -20 107 -20 l92 0 62 66 c59 62 72
84 54 84 -4 0 -12 15 -17 33 l-10 32 -170 3 c-124 2 -174 -1 -183 -10z"/>
<path d="M820 1321 c0 -32 -22 -277 -30 -336 -6 -38 -19 -173 -30 -300 -11
-126 -25 -266 -30 -309 l-9 -79 42 -59 c23 -32 57 -78 74 -101 18 -23 33 -50
33 -59 0 -11 8 -18 20 -18 11 0 20 5 20 11 0 9 44 74 60 89 3 3 25 34 49 70
43 65 43 65 37 135 -3 39 -13 161 -21 273 -8 111 -19 232 -24 270 -5 37 -15
147 -22 245 l-12 177 -79 0 c-43 0 -78 -4 -78 -9z"/>
</g>
</svg>
